<svg t="1719808069793" class="icon" viewBox="0 0 1194 1024" version="1.1" xmlns="http://www.w3.org/2000/svg" p-id="1557" width="32" height="32">
    <path d="M1152 682.666667H915.626667V42.666667a42.666667 42.666667 0 0 0-42.666667-42.666667H42.666667a42.666667 42.666667 0 0 0-42.666667 42.666667v938.666666a42.666667 42.666667 0 0 0 42.666667 42.666667h830.293333a42.666667 42.666667 0 0 0 42.666667-42.666667v-64H1152a42.666667 42.666667 0 0 0 42.666667-42.666666v-149.333334a42.666667 42.666667 0 0 0-42.666667-42.666666zM872.96 981.333333H42.666667V42.666667h830.293333v640H547.84a42.666667 42.666667 0 0 0-42.666667 42.666666v53.12h-192v-119.04a21.333333 21.333333 0 0 0-1.493333-8.106666 42.666667 42.666667 0 0 0 23.893333-38.186667 42.666667 42.666667 0 1 0-64 38.4 19.413333 19.413333 0 0 0-1.706666 7.893333v119.253334a42.666667 42.666667 0 0 0 42.666666 42.666666h192V874.666667a42.666667 42.666667 0 0 0 42.666667 42.666666h325.76z m-325.12-106.666666v-149.333334H1152v149.333334z" fill="#cccccc" p-id="1558"></path><path d="M211.84 284.16h518.826667a21.333333 21.333333 0 0 0 0-42.666667H211.84a21.333333 21.333333 0 0 0 0 42.666667zM565.973333 411.733333a21.333333 21.333333 0 0 0-21.333333-21.333333H211.84a21.333333 21.333333 0 0 0 0 42.666667h332.8a21.333333 21.333333 0 0 0 21.333333-21.333334zM1042.56 778.88H657.28a21.333333 21.333333 0 1 0 0 42.666667h385.28a21.333333 21.333333 0 0 0 0-42.666667z" fill="#cccccc" p-id="1559"></path></svg>